{"title":"Hero.Corp.S01.DVDRip.XviD.MP3","uid":8233884,"size":3525164618,"categoryP":"video","categoryS":"tv_shows","magnet":"?xt=urn:btih:14a3f3cbdfbec9a70e6e1948953de716d749f977&amp;dn=Hero.Corp.S01.DVDRip.XviD.MP3&amp;tr=udp%3A%2F%2Ftracker.openbittorrent.com%3A80&amp;tr=udp%3A%2F%2Fopen.demonii.com%3A1337&amp;tr=udp%3A%2F%2Ftracker.coppersurfer.tk%3A6969&amp;tr=udp%3A%2F%2Fexodus.desync.com%3A6969","seeders":1,"leechers":0,"uploader":"madmox52","files":16,"time":1362796441,"description":"Hero Corp - Season 1 (french TV show)\n\nThis is DVD Rip, not TV Rip!\n\nMKV container (XviD/MP3), remuxed from private AVI release, without re-encoding, with MKVmerge.\n\nFRENCH LANGUAGE, NO SUBTITLES\n\n---------------------------------------\n\nGeneral\nUnique ID                                : 180673810713756450087715957711919580583 (0x87EC829DE8FED5ABBBB06FB8396705A7)\nComplete name                            : X:Hero CorpSeason 1Hero.Corp.S01E01.352p.DVDrip.XviD.MP3.mkv\nFormat                                   : Matroska\nFormat version                           : Version 4 / Version 2\nFile size                                : 224 MiB\nDuration                                 : 25mn 50s\nOverall bit rate mode                    : Variable\nOverall bit rate                         : 1 214 Kbps\nEncoded date                             : UTC 2013-03-03 19:28:59\nWriting application                      : mkvmerge v6.1.0 ('Old Devil') built on Mar  2 2013 14:32:37\nWriting library                          : libebml v1.3.0 + libmatroska v1.4.0\n\nVideo\nID                                       : 1\nFormat                                   : MPEG-4 Visual\nFormat profile                           : Advanced Simple@L5\nFormat settings, BVOP                    : No\nFormat settings, QPel                    : No\nFormat settings, GMC                     : No warppoints\nFormat settings, Matrix                  : Default (H.263)\nCodec ID                                 : V_MS/VFW/FOURCC / XVID\nCodec ID/Hint                            : XviD\nDuration                                 : 25mn 50s\nBit rate                                 : 1 062 Kbps\nWidth                                    : 640 pixels\nHeight                                   : 352 pixels\nDisplay aspect ratio                     : 16:9\nFrame rate mode                          : Constant\nFrame rate                               : 25.000 fps\nColor space                              : YUV\nChroma subsampling                       : 4:2:0\nBit depth                                : 8 bits\nScan type                                : Progressive\nCompression mode                         : Lossy\nBits/(Pixel*Frame)                       : 0.189\nStream size                              : 196 MiB (87%)\nWriting library                          : XviD 1.2.1 (UTC 2008-12-04)\nLanguage                                 : French\nDefault                                  : Yes\nForced                                   : No\n\nAudio\nID                                       : 2\nFormat                                   : MPEG Audio\nFormat version                           : Version 1\nFormat profile                           : Layer 3\nMode                                     : Joint stereo\nMode extension                           : MS Stereo\nCodec ID                                 : A_MPEG/L3\nCodec ID/Hint                            : MP3\nDuration                                 : 26mn 32s\nBit rate mode                            : Variable\nBit rate                                 : 128 Kbps\nChannel(s)                               : 2 channels\nSampling rate                            : 48.0 KHz\nCompression mode                         : Lossy\nStream size                              : 24.3 MiB (11%)\nWriting library                          : LAME3.90.\nEncoding settings                        : -m j -V 4 -q 2 -lowpass 17.6 --abr 128\nLanguage                                 : French\nDefault                                  : Yes\nForced                                   : No\n\n","torrent":{"xt":"urn:btih:14a3f3cbdfbec9a70e6e1948953de716d749f977","amp;dn":"Hero.Corp.S01.DVDRip.XviD.MP3","amp;tr":["udp%3A%2F%2Ftracker.openbittorrent.com%3A80","udp%3A%2F%2Fopen.demonii.com%3A1337","udp%3A%2F%2Ftracker.coppersurfer.tk%3A6969","udp%3A%2F%2Fexodus.desync.com%3A6969"],"infoHash":"14a3f3cbdfbec9a70e6e1948953de716d749f977","infoHashBuffer":{"type":"Buffer","data":[20,163,243,203,223,190,201,167,14,110,25,72,149,61,231,22,215,73,249,119]},"announce":[],"urlList":[]}}